# Blender v2.92.0 OBJ File: 'Glider_pixel.blend'
# www.blender.org
mtllib Glider_pixel.mtl
o Cube
v 0.812500 0.062500 -0.062500
v 0.812500 -0.062500 -0.062500
v -1.750000 0.062500 -0.062500
v -1.750000 -0.062500 -0.062500
v 1.312500 0.125000 -0.125000
v 1.312500 -0.062500 -0.125000
v 1.000000 0.187500 -0.187500
v 1.000000 -0.125000 -0.187500
v 1.312500 0.187500 -0.187500
v 1.312500 -0.125000 -0.187500
v 1.000000 0.062500 -0.062500
v 1.000000 -0.062500 -0.062500
v 1.000000 0.125000 -0.125000
v 1.000000 -0.062500 -0.125000
v 1.187500 0.062500 -0.062500
v 1.187500 -0.062500 -0.062500
v 1.187500 0.187500 -0.125000
v 1.187500 -0.062500 -0.125000
v 1.187500 0.062500 -0.062500
v 1.187500 -0.062500 -0.062500
v 1.187500 0.062500 -0.125000
v 1.187500 -0.062500 -0.125000
v 1.250000 0.125000 -0.125000
v 1.250000 -0.062500 -0.125000
v -0.875000 -0.062500 -2.000000
v -0.875000 0.062500 -2.000000
v -0.812500 -0.062500 -2.062500
v -0.812500 0.062500 -2.062500
v 0.937500 -0.062500 -0.187500
v 0.937500 0.062500 -0.187500
v 1.000000 -0.062500 -0.250000
v 1.000000 0.062500 -0.250000
v -1.500000 -0.062500 -0.062500
v -1.500000 0.062500 -0.062500
v -0.625000 -0.062500 -1.875000
v -0.625000 0.062500 -1.875000
v -0.687500 -0.062500 -1.812500
v -0.687500 0.062500 -1.812500
v 0.875000 0.187500 -0.125000
v 0.937500 0.000000 -0.187500
v 0.875000 0.187500 -0.125000
v -0.687500 0.000000 -1.812500
v -0.875000 0.000000 -2.000000
v -0.812500 0.000000 -2.062500
v 1.000000 0.000000 -0.250000
v -1.062500 0.125000 -0.562500
v -0.750000 0.125000 -1.125000
v -0.625000 0.000000 -1.875000
v 0.812500 0.062500 -0.062500
v -1.500000 0.062500 -0.062500
v 0.875000 0.187500 -0.125000
v 0.937500 0.000000 -0.187500
v 0.875000 0.187500 -0.125000
v -0.687500 0.000000 -1.812500
v -1.062500 0.125000 -0.562500
v -0.750000 0.125000 -1.125000
v 0.812500 0.062500 0.062500
v 0.812500 -0.062500 0.062500
v -1.750000 0.062500 0.062500
v -1.750000 -0.062500 0.062500
v 1.312500 0.125000 0.125000
v 1.312500 -0.062500 0.125000
v 1.000000 0.187500 0.187500
v 1.000000 -0.125000 0.187500
v 1.312500 0.187500 0.187500
v 1.312500 -0.125000 0.187500
v 1.000000 0.062500 0.062500
v 1.000000 -0.062500 0.062500
v 1.000000 0.125000 0.125000
v 1.000000 -0.062500 0.125000
v 1.187500 0.062500 0.062500
v 1.187500 -0.062500 0.062500
v 1.187500 0.187500 0.125000
v 1.187500 -0.062500 0.125000
v 1.187500 0.062500 0.062500
v 1.187500 -0.062500 0.062500
v 1.187500 0.062500 0.125000
v 1.187500 -0.062500 0.125000
v 1.250000 0.125000 0.125000
v 1.250000 -0.062500 0.125000
v -0.875000 -0.062500 2.000000
v -0.875000 0.062500 2.000000
v -0.812500 -0.062500 2.062500
v -0.812500 0.062500 2.062500
v 0.937500 -0.062500 0.187500
v 0.937500 0.062500 0.187500
v 1.000000 -0.062500 0.250000
v 1.000000 0.062500 0.250000
v -1.500000 -0.062500 0.062500
v 0.812500 -0.062500 0.000000
v -1.500000 0.062500 0.062500
v -0.625000 -0.062500 1.875000
v -0.625000 0.062500 1.875000
v -0.687500 -0.062500 1.812500
v -0.687500 0.062500 1.812500
v 0.875000 0.187500 0.125000
v 0.937500 0.000000 0.187500
v 0.875000 0.187500 0.125000
v -0.687500 0.000000 1.812500
v -0.875000 0.000000 2.000000
v -0.812500 0.000000 2.062500
v 1.000000 0.000000 0.250000
v -1.062500 0.125000 0.562500
v -0.750000 0.125000 1.125000
v -0.625000 0.000000 1.875000
v 1.312500 0.125000 0.000000
v 1.312500 -0.062500 0.000000
v 1.000000 0.187500 0.000000
v 1.000000 -0.125000 0.000000
v 1.312500 0.187500 0.000000
v 1.312500 -0.125000 0.000000
v 1.000000 0.062500 0.000000
v 1.000000 -0.062500 0.000000
v 1.000000 0.125000 0.000000
v 1.000000 -0.062500 0.000000
v 1.187500 0.062500 0.000000
v 1.187500 -0.062500 0.000000
v 1.187500 0.187500 0.000000
v 1.187500 -0.062500 0.000000
v 1.250000 0.125000 0.000000
v 1.250000 -0.062500 0.000000
v -1.750000 -0.062500 0.000000
v -1.750000 0.062500 0.000000
v -1.500000 -0.062500 0.000000
v -1.500000 0.062500 0.000000
v 0.812500 0.062500 0.000000
v 0.812500 0.062500 0.062500
v -1.500000 0.062500 0.062500
v 0.875000 0.187500 0.125000
v 0.937500 0.000000 0.187500
v 0.875000 0.187500 0.125000
v -0.687500 0.000000 1.812500
v -1.062500 0.125000 0.562500
v -0.750000 0.125000 1.125000
vt 0.791667 0.250000
vt 0.791749 0.270833
vt 0.781250 0.270833
vt 0.781250 0.250000
vt 0.906250 0.750000
vt 0.906250 0.406250
vt 0.895833 0.406250
vt 0.895833 0.750000
vt 0.979167 0.916667
vt 0.979167 0.937500
vt 0.625000 0.937500
vt 0.625000 0.916667
vt 0.677083 0.166667
vt 0.708333 0.166667
vt 0.708333 0.187500
vt 0.677083 0.187500
vt 0.729167 0.291667
vt 0.729167 0.260417
vt 0.739583 0.270833
vt 0.739583 0.291667
vt 0.718750 0.187500
vt 0.718750 0.239583
vt 0.770833 0.239583
vt 0.770833 0.187500
vt 0.781250 0.072917
vt 0.812500 0.072917
vt 0.812500 0.135417
vt 0.781250 0.135417
vt 0.583333 0.187500
vt 0.583333 0.208333
vt 0.552083 0.208333
vt 0.552083 0.187500
vt 0.697917 0.302083
vt 0.697917 0.281250
vt 0.687500 0.270833
vt 0.687500 0.302083
vt 0.697917 0.208333
vt 0.697917 0.250000
vt 0.708333 0.250000
vt 0.697917 0.197917
vt 0.729167 0.260417
vt 0.729167 0.229167
vt 0.697917 0.229167
vt 0.697917 0.260417
vt 0.677083 0.260417
vt 0.708333 0.260417
vt 0.708333 0.260417
vt 0.677083 0.260417
vt 0.718750 0.322917
vt 0.718750 0.260417
vt 0.708333 0.270833
vt 0.708333 0.312500
vt 0.979167 0.489583
vt 0.968750 0.489583
vt 0.968750 0.458333
vt 0.979167 0.458333
vt 0.677083 0.187500
vt 0.708333 0.187500
vt 0.708333 0.187500
vt 0.677083 0.187500
vt 0.489583 0.187500
vt 0.489583 0.208333
vt 0.520833 0.208333
vt 0.520833 0.187500
vt 0.677083 0.187500
vt 0.708333 0.187500
vt 0.718750 0.260417
vt 0.708333 0.250000
vt 0.708333 0.260417
vt 0.708333 0.260417
vt 0.708333 0.187500
vt 0.708333 0.187500
vt 0.708333 0.260417
vt 0.687500 0.187500
vt 0.687500 0.218750
vt 0.697917 0.218750
vt 0.697917 0.187500
vt 0.354167 0.427083
vt 0.354167 0.416667
vt 0.364583 0.416667
vt 0.364583 0.427083
vt 0.854167 0.489583
vt 0.854167 0.500000
vt 0.541667 0.500000
vt 0.541667 0.489583
vt 0.385417 0.406250
vt 0.375000 0.395833
vt 0.385417 0.385417
vt 0.395833 0.385417
vt 0.625000 0.156250
vt 0.614583 0.156250
vt 0.614583 0.104167
vt 0.625000 0.104167
vt 0.854167 0.531250
vt 0.416667 0.531250
vt 0.416667 0.510417
vt 0.854167 0.510417
vt 0.250000 0.062500
vt 0.197917 0.062500
vt 0.197917 0.052083
vt 0.250000 0.052083
vt 0.833333 0.197917
vt 0.833333 0.229167
vt 0.770833 0.229167
vt 0.770833 0.197917
vt 0.968750 0.208333
vt 0.968750 0.552083
vt 0.958333 0.552083
vt 0.958333 0.208333
vt 0.729167 0.552083
vt 0.416667 0.552083
vt 0.416667 0.541667
vt 0.729167 0.541667
vt 0.312500 0.072917
vt 0.260417 0.072917
vt 0.260417 0.052083
vt 0.312500 0.052083
vt 0.291667 0.375000
vt 0.281250 0.375000
vt 0.281250 0.062500
vt 0.291667 0.062500
vt 0.364583 0.385417
vt 0.354167 0.385417
vt 0.354167 0.427083
vt 0.364583 0.427083
vt 0.156250 0.947917
vt 0.125000 0.947917
vt 0.052083 0.614583
vt 0.156250 0.614583
vt 0.375000 0.385417
vt 0.375000 0.427083
vt 0.302083 0.468750
vt 0.291667 0.468750
vt 0.291667 0.145833
vt 0.302083 0.145833
vt 0.302083 0.156250
vt 0.291667 0.156250
vt 0.291667 0.104167
vt 0.302083 0.104167
vt 0.385417 0.406250
vt 0.395833 0.395833
vt 0.854167 0.479167
vt 0.541667 0.479167
vt 0.354167 0.447917
vt 0.343750 0.447917
vt 0.343750 0.437500
vt 0.354167 0.437500
vt 0.375000 0.947917
vt 0.343750 0.947917
vt 0.291667 0.614583
vt 0.375000 0.614583
vt 0.260417 0.947917
vt 0.260417 0.614583
vt 0.666667 0.281250
vt 0.635417 0.281250
vt 0.635417 0.260417
vt 0.666667 0.260417
vt 0.697917 0.229167
vt 0.697917 0.260417
vt 0.677083 0.260417
vt 0.677083 0.229167
vt 0.697917 0.229167
vt 0.697917 0.250000
vt 0.708333 0.250000
vt 0.708333 0.229167
vt 0.697917 0.197917
vt 0.677083 0.197917
vt 0.677083 0.166667
vt 0.697917 0.166667
vt 0.697917 0.250000
vt 0.677083 0.250000
vt 0.708333 0.156250
vt 0.677083 0.156250
vt 0.677083 0.166667
vt 0.698163 0.166667
vt 0.687500 0.239583
vt 0.677083 0.239583
vt 0.677083 0.270833
vt 0.687500 0.270833
vt 0.739583 0.312500
vt 0.708333 0.312500
vt 0.708333 0.260417
vt 0.739583 0.260417
vt 0.739583 0.270833
vt 0.760417 0.270833
vt 0.760417 0.281250
vt 0.729167 0.281250
vt 0.697917 0.114583
vt 0.697917 0.166667
vt 0.677083 0.166667
vt 0.677083 0.114583
vt 0.677083 0.218750
vt 0.677083 0.187500
vt 0.687500 0.187500
vt 0.687500 0.218750
vt 0.958333 0.562500
vt 0.958333 0.604167
vt 0.947917 0.604167
vt 0.947917 0.562500
vt 0.156250 0.947917
vt 0.156250 0.614583
vt 0.052083 0.614583
vt 0.125000 0.947917
vt 0.375000 0.947917
vt 0.375000 0.614583
vt 0.291667 0.614583
vt 0.343750 0.947917
vt 0.260417 0.947917
vt 0.260417 0.614583
vt 0.781250 0.250000
vt 0.781250 0.270833
vt 0.906250 0.750000
vt 0.906250 0.406250
vt 0.677083 0.125000
vt 0.812500 0.187500
vt 0.677083 0.333333
vt 0.677083 0.322917
vt 0.677083 0.260417
vt 0.677083 0.260417
vt 0.677083 0.260417
vt 0.677083 0.260417
vt 0.677083 0.260417
vt 0.677083 0.260417
vt 0.677083 0.187500
vt 0.677083 0.187500
vt 0.677083 0.187500
vt 0.677083 0.187500
vt 0.979167 0.916667
vt 0.625000 0.916667
vt 0.625000 0.937500
vt 0.979167 0.937500
vt 0.708333 0.187500
vt 0.708333 0.166667
vt 0.739583 0.270833
vt 0.729167 0.260417
vt 0.718750 0.187500
vt 0.770833 0.187500
vt 0.770833 0.239583
vt 0.718750 0.239583
vt 0.812500 0.135417
vt 0.812500 0.072917
vt 0.583333 0.187500
vt 0.552083 0.187500
vt 0.552083 0.208333
vt 0.583333 0.208333
vt 0.687500 0.270833
vt 0.697917 0.281250
vt 0.697917 0.208333
vt 0.697917 0.197917
vt 0.708333 0.250000
vt 0.697917 0.250000
vt 0.729167 0.260417
vt 0.697917 0.260417
vt 0.697917 0.229167
vt 0.729167 0.229167
vt 0.708333 0.260417
vt 0.708333 0.260417
vt 0.718750 0.322917
vt 0.708333 0.312500
vt 0.708333 0.270833
vt 0.718750 0.260417
vt 0.979167 0.489583
vt 0.979167 0.458333
vt 0.708333 0.187500
vt 0.708333 0.187500
vt 0.489583 0.187500
vt 0.520833 0.187500
vt 0.520833 0.208333
vt 0.489583 0.208333
vt 0.708333 0.187500
vt 0.718750 0.260417
vt 0.708333 0.260417
vt 0.708333 0.260417
vt 0.708333 0.250000
vt 0.708333 0.187500
vt 0.708333 0.187500
vt 0.708333 0.260417
vt 0.687500 0.187500
vt 0.697917 0.187500
vt 0.697917 0.218750
vt 0.687500 0.218750
vt 0.354167 0.427083
vt 0.364583 0.427083
vt 0.364583 0.416667
vt 0.354167 0.416667
vt 0.854167 0.489583
vt 0.541667 0.489583
vt 0.541667 0.500000
vt 0.854167 0.500000
vt 0.385417 0.406250
vt 0.395833 0.385417
vt 0.385417 0.385417
vt 0.375000 0.395833
vt 0.625000 0.156250
vt 0.625000 0.104167
vt 0.614583 0.104167
vt 0.614583 0.156250
vt 0.854167 0.531250
vt 0.854167 0.510417
vt 0.416667 0.510417
vt 0.416667 0.531250
vt 0.250000 0.062500
vt 0.250000 0.052083
vt 0.197917 0.052083
vt 0.197917 0.062500
vt 0.833333 0.197917
vt 0.770833 0.197917
vt 0.770833 0.229167
vt 0.833333 0.229167
vt 0.968750 0.208333
vt 0.968750 0.552083
vt 0.729167 0.552083
vt 0.729167 0.541667
vt 0.416667 0.541667
vt 0.416667 0.552083
vt 0.312500 0.072917
vt 0.312500 0.052083
vt 0.260417 0.052083
vt 0.260417 0.072917
vt 0.291667 0.375000
vt 0.291667 0.062500
vt 0.281250 0.062500
vt 0.281250 0.375000
vt 0.364583 0.385417
vt 0.364583 0.427083
vt 0.354167 0.427083
vt 0.354167 0.385417
vt 0.156250 0.947917
vt 0.156250 0.614583
vt 0.052083 0.614583
vt 0.125000 0.947917
vt 0.375000 0.385417
vt 0.375000 0.427083
vt 0.302083 0.468750
vt 0.302083 0.145833
vt 0.291667 0.145833
vt 0.291667 0.468750
vt 0.302083 0.156250
vt 0.302083 0.104167
vt 0.291667 0.104167
vt 0.291667 0.156250
vt 0.385417 0.406250
vt 0.395833 0.395833
vt 0.854167 0.479167
vt 0.541667 0.479167
vt 0.354167 0.447917
vt 0.354167 0.437500
vt 0.343750 0.437500
vt 0.343750 0.447917
vt 0.375000 0.947917
vt 0.375000 0.614583
vt 0.291667 0.614583
vt 0.343750 0.947917
vt 0.260417 0.947917
vt 0.260417 0.614583
vt 0.666667 0.281250
vt 0.666667 0.260417
vt 0.697917 0.229167
vt 0.697917 0.260417
vt 0.697917 0.229167
vt 0.708333 0.229167
vt 0.708333 0.250000
vt 0.697917 0.250000
vt 0.697917 0.197917
vt 0.697917 0.166667
vt 0.697917 0.250000
vt 0.708333 0.156250
vt 0.698163 0.166667
vt 0.687500 0.239583
vt 0.687500 0.270833
vt 0.739583 0.312500
vt 0.739583 0.260417
vt 0.739583 0.270833
vt 0.729167 0.281250
vt 0.697917 0.114583
vt 0.697917 0.166667
vt 0.687500 0.218750
vt 0.687500 0.187500
vt 0.958333 0.562500
vt 0.958333 0.604167
vt 0.156250 0.947917
vt 0.125000 0.947917
vt 0.052083 0.614583
vt 0.156250 0.614583
vt 0.375000 0.947917
vt 0.343750 0.947917
vt 0.291667 0.614583
vt 0.375000 0.614583
vt 0.260417 0.947917
vt 0.260417 0.614583
vn -1.0000 0.0000 0.0000
vn 0.0000 -1.0000 0.0000
vn 0.0000 0.0000 -1.0000
vn 0.0000 1.0000 0.0000
vn 1.0000 0.0000 0.0000
vn 0.0000 0.0000 1.0000
vn 0.3162 -0.9487 0.0000
vn -0.7071 0.0000 -0.7071
vn 0.7071 0.0000 -0.7071
vn 0.7071 0.0000 0.7071
vn -0.7071 0.0000 0.7071
vn 0.2537 0.9072 -0.3357
vn -0.0431 0.9587 0.2813
vn -0.0286 0.9995 -0.0159
vn -0.2537 -0.9072 0.3357
vn 0.0431 -0.9587 -0.2813
vn 0.0286 -0.9995 0.0159
vn 0.2537 0.9072 0.3357
vn -0.0431 0.9587 -0.2813
vn -0.0286 0.9995 0.0159
vn -0.2537 -0.9072 -0.3357
vn 0.0431 -0.9587 0.2813
vn 0.0286 -0.9995 -0.0159
usemtl m_glider
s off
f 122/1/1 123/2/1 3/3/1 4/4/1
f 33/5/2 2/6/2 90/7/2 124/8/2
f 33/9/3 34/10/3 1/11/3 2/12/3
f 107/13/4 6/14/4 24/15/4 121/16/4
f 108/17/1 7/18/1 13/19/1 114/20/1
f 8/21/3 7/22/3 9/23/3 10/24/3
f 109/25/2 8/26/2 10/27/2 111/28/2
f 2/29/3 1/30/3 11/31/3 12/32/3
f 106/33/5 5/34/5 9/35/5 110/36/5
f 5/37/5 6/38/5 10/39/5 9/40/5
f 13/41/6 14/42/6 18/43/6 17/44/6
f 114/45/7 13/46/7 17/47/7 118/48/7
f 7/49/1 8/50/1 14/51/1 13/52/1
f 1/53/4 126/54/4 112/55/4 11/56/4
f 117/57/6 16/58/6 18/59/6 119/60/6
f 12/61/3 11/62/3 15/63/3 16/64/3
f 113/65/2 12/66/2 16/58/2 117/57/2
f 15/67/1 17/68/1 21/69/1 19/70/1
f 17/47/6 18/59/6 22/71/6 21/69/6
f 18/59/6 16/58/6 20/72/6 22/71/6
f 16/58/6 15/73/6 19/70/6 20/72/6
f 6/74/6 5/75/6 23/76/6 24/77/6
f 43/78/8 26/79/8 28/80/8 44/81/8
f 48/82/9 36/83/9 32/84/9 45/85/9
f 45/86/10 32/87/10 30/88/10 40/89/10
f 42/90/11 38/91/11 26/92/11 43/93/11
f 35/94/2 31/95/2 29/96/2 37/97/2
f 36/98/4 28/99/4 26/100/4 38/101/4
f 4/102/3 3/103/3 34/104/3 33/105/3
f 1/106/4 34/107/4 125/108/4 126/109/4
f 32/110/4 36/111/4 38/112/4 30/113/4
f 27/114/2 35/115/2 37/116/2 25/117/2
f 40/118/11 30/119/11 38/120/11 42/121/11
f 44/122/9 28/123/9 36/124/9 48/125/9
f 41/126/12 40/127/12 42/128/12 47/129/12
f 27/130/9 44/122/9 48/125/9 35/131/9
f 29/132/11 40/133/11 42/134/11 37/135/11
f 37/136/11 42/137/11 43/138/11 25/139/11
f 31/140/10 45/86/10 40/89/10 29/141/10
f 35/142/9 48/82/9 45/85/9 31/143/9
f 25/144/8 43/145/8 44/146/8 27/147/8
f 1/148/13 39/149/13 46/150/13 34/151/13
f 39/152/14 41/126/14 47/129/14 46/153/14
f 5/154/2 106/155/2 120/156/2 23/157/2
f 24/158/5 23/159/5 120/160/5 121/161/5
f 20/162/1 19/163/1 21/164/1 22/165/1
f 14/166/4 115/167/4 119/168/4 18/169/4
f 15/170/1 116/171/1 118/48/1 17/44/1
f 8/172/1 109/173/1 115/174/1 14/175/1
f 11/176/4 112/177/4 116/178/4 15/179/4
f 7/180/4 108/181/4 110/182/4 9/183/4
f 6/184/5 107/185/5 111/186/5 10/187/5
f 4/188/2 33/189/2 124/190/2 122/191/2
f 113/192/2 90/193/2 2/194/2 12/195/2
f 34/196/4 3/197/4 123/198/4 125/199/4
f 53/200/15 56/201/15 54/202/15 52/203/15
f 49/204/16 50/205/16 55/206/16 51/207/16
f 51/208/17 55/209/17 56/201/17 53/200/17
f 122/1/1 60/210/1 59/211/1 123/2/1
f 89/212/2 124/8/2 90/7/2 58/213/2
f 113/65/3 90/193/3 124/214/3 122/215/3 123/216/3 125/217/3 126/218/3 112/219/3 116/220/3 118/48/3 114/45/3 108/221/3 110/222/3 106/223/3 120/160/3 121/16/3 107/224/3 111/225/3 109/226/3 115/227/3 119/60/3 117/57/3
f 89/228/6 58/229/6 57/230/6 91/231/6
f 107/13/4 121/16/4 80/232/4 62/233/4
f 108/17/1 114/20/1 69/234/1 63/235/1
f 64/236/6 66/237/6 65/238/6 63/239/6
f 109/25/2 111/28/2 66/240/2 64/241/2
f 58/242/6 68/243/6 67/244/6 57/245/6
f 106/33/5 110/36/5 65/246/5 61/247/5
f 61/248/5 65/249/5 66/250/5 62/251/5
f 69/252/3 73/253/3 74/254/3 70/255/3
f 114/45/7 118/48/7 73/256/7 69/257/7
f 63/258/1 69/259/1 70/260/1 64/261/1
f 57/262/4 67/263/4 112/55/4 126/54/4
f 117/57/6 119/60/6 74/264/6 72/265/6
f 68/266/6 72/267/6 71/268/6 67/269/6
f 113/65/2 117/57/2 72/265/2 68/270/2
f 71/271/1 75/272/1 77/273/1 73/274/1
f 73/256/6 77/273/6 78/275/6 74/264/6
f 74/264/6 78/275/6 76/276/6 72/265/6
f 72/265/6 76/276/6 75/272/6 71/277/6
f 62/278/3 80/279/3 79/280/3 61/281/3
f 100/282/11 101/283/11 84/284/11 82/285/11
f 105/286/10 102/287/10 88/288/10 93/289/10
f 102/290/9 97/291/9 86/292/9 88/293/9
f 99/294/8 100/295/8 82/296/8 95/297/8
f 92/298/2 94/299/2 85/300/2 87/301/2
f 93/302/4 95/303/4 82/304/4 84/305/4
f 60/306/6 89/307/6 91/308/6 59/309/6
f 57/310/4 126/109/4 125/108/4 91/311/4
f 88/312/4 86/313/4 95/314/4 93/315/4
f 83/316/2 81/317/2 94/318/2 92/319/2
f 97/320/8 99/321/8 95/322/8 86/323/8
f 101/324/10 105/325/10 93/326/10 84/327/10
f 98/328/18 104/329/18 99/330/18 97/331/18
f 83/332/10 92/333/10 105/325/10 101/324/10
f 85/334/8 94/335/8 99/336/8 97/337/8
f 94/338/8 81/339/8 100/340/8 99/341/8
f 87/342/9 85/343/9 97/291/9 102/290/9
f 92/344/10 87/345/10 102/287/10 105/286/10
f 81/346/11 83/347/11 101/348/11 100/349/11
f 57/350/19 91/351/19 103/352/19 96/353/19
f 96/354/20 103/355/20 104/329/20 98/328/20
f 61/356/2 79/357/2 120/156/2 106/155/2
f 80/358/5 121/161/5 120/160/5 79/359/5
f 76/360/1 78/361/1 77/362/1 75/363/1
f 70/364/4 74/365/4 119/168/4 115/167/4
f 71/366/1 73/253/1 118/48/1 116/171/1
f 64/367/1 70/368/1 115/174/1 109/173/1
f 67/369/4 71/370/4 116/178/4 112/177/4
f 63/371/4 65/372/4 110/182/4 108/181/4
f 62/373/5 66/374/5 111/186/5 107/185/5
f 60/375/2 122/191/2 124/190/2 89/376/2
f 113/192/2 68/377/2 58/378/2 90/193/2
f 91/379/4 125/199/4 123/198/4 59/380/4
f 131/381/21 130/382/21 132/383/21 134/384/21
f 127/385/22 129/386/22 133/387/22 128/388/22
f 129/389/23 131/381/23 134/384/23 133/390/23
